#N canvas 261 125 910 681 10;
#X obj 10 137 sampler samples/Kick-Drum-1.wav;
#X obj 26 31 dualshock-broadcast;
#X obj 26 10 tgl 15 0 empty empty empty 17 7 0 10 -262144 -1 -1 1 1
;
#X obj 10 112 r L1;
#X obj 213 86 r L2;
#X obj 213 107 / 255;
#X obj 214 139 sampler samples/Snare-Drum-1.wav;
#X obj 655 106 / 255;
#X obj 655 85 r R2;
#X obj 427 122 sampler samples/Closed-Hi-Hat-1.wav;
#X obj 437 97 r R1;
#X obj 647 137 sampler samples/Open-Hi-Hat-1.wav;
#X obj 14 202 r square;
#X obj 14 230 sampler samples/Low-Tom-1.wav;
#X obj 208 200 r triangle;
#X obj 208 228 sampler samples/Hi-Tom-1.wav;
#X obj 419 196 r cross;
#X obj 419 224 sampler samples/Clap-1.wav;
#X obj 596 195 r circle;
#X obj 596 223 sampler samples/Claves.wav;
#X obj 15 287 r options;
#X obj 15 315 sampler samples/High-Agogo.wav;
#X obj 214 313 sampler samples/Crash-Cymbal-1.wav;
#X obj 147 616 dac~;
#X obj 10 162 throw~ left;
#X obj 119 163 throw~ right;
#X obj 13 384 catch~ left;
#X obj 322 383 catch~ right;
#X obj 215 164 throw~ left;
#X obj 324 165 throw~ right;
#X obj 436 151 throw~ left;
#X obj 545 152 throw~ right;
#X obj 660 164 throw~ left;
#X obj 769 165 throw~ right;
#X obj 14 254 throw~ left;
#X obj 123 255 throw~ right;
#X obj 209 252 throw~ left;
#X obj 318 253 throw~ right;
#X obj 414 249 throw~ left;
#X obj 523 250 throw~ right;
#X obj 603 249 throw~ left;
#X obj 712 250 throw~ right;
#X obj 15 338 throw~ left;
#X obj 124 339 throw~ right;
#X obj 214 337 throw~ left;
#X obj 323 338 throw~ right;
#X floatatom 508 343 5 0 0 0 - - -, f 5;
#X floatatom 576 344 5 0 0 0 - - -, f 5;
#X obj 508 316 r LY;
#X obj 576 317 r LX;
#X obj 62 467 *~;
#X obj 517 442 / 127;
#X obj 515 472 \$1 1;
#X obj 515 494 line~;
#X obj 320 455 *~;
#X obj 59 414 delwrite~ d1l 1000;
#X obj 359 406 delwrite~ d1r 1000;
#X obj 61 443 delread~ d1l 750;
#X obj 320 430 delread~ d1r 750;
#X obj 581 440 / 127;
#X obj 579 470 \$1 1;
#X obj 580 493 line~;
#X obj 94 507 *~;
#X obj 356 480 *~;
#X obj 94 485 delread~ d1l 500;
#X obj 356 456 delread~ d1r 500;
#X text 504 296 750;
#X text 575 298 500;
#X floatatom 630 342 5 0 0 0 - - -, f 5;
#X obj 635 438 / 127;
#X obj 633 468 \$1 1;
#X obj 633 490 line~;
#X obj 630 315 r LY;
#X floatatom 762 337 5 0 0 0 - - -, f 5;
#X obj 771 436 / 127;
#X obj 769 466 \$1 1;
#X obj 770 489 line~;
#X obj 124 538 *~;
#X obj 762 310 r LX;
#X obj 355 537 *~;
#X obj 152 567 *~;
#X obj 355 586 *~;
#X text 761 291 5 (flange);
#X obj 152 545 delread~ d1l 5;
#X obj 355 564 delread~ d1r 5;
#X floatatom 479 441 5 0 0 0 - - -, f 5;
#X obj 506 406 clip 0 128;
#X obj 576 402 clip 0 128;
#X obj 652 401 clip 0 128;
#X obj 760 393 clip 0 128;
#X obj 424 363 expr (255 - $f1) - 131;
#X obj 575 365 - 131;
#X obj 629 362 - 131;
#X obj 678 357 expr (255 - $f1) - 131;
#X text 626 295 30 (flam);
#X obj 124 516 delread~ d1l 30;
#X obj 355 514 delread~ d1r 30;
#X obj 214 285 r touchpad;
#X obj 286 285 r R3;
#X connect 0 0 24 0;
#X connect 0 1 25 0;
#X connect 2 0 1 0;
#X connect 3 0 0 0;
#X connect 4 0 5 0;
#X connect 5 0 6 0;
#X connect 6 0 28 0;
#X connect 6 1 29 0;
#X connect 7 0 11 0;
#X connect 8 0 7 0;
#X connect 9 0 30 0;
#X connect 9 1 31 0;
#X connect 10 0 9 0;
#X connect 11 0 32 0;
#X connect 11 1 33 0;
#X connect 12 0 13 0;
#X connect 13 0 34 0;
#X connect 13 1 35 0;
#X connect 14 0 15 0;
#X connect 15 0 36 0;
#X connect 15 1 37 0;
#X connect 16 0 17 0;
#X connect 17 0 38 0;
#X connect 17 1 39 0;
#X connect 18 0 19 0;
#X connect 19 0 40 0;
#X connect 19 1 41 0;
#X connect 20 0 21 0;
#X connect 21 0 42 0;
#X connect 21 1 43 0;
#X connect 22 0 44 0;
#X connect 22 1 45 0;
#X connect 26 0 23 0;
#X connect 26 0 55 0;
#X connect 27 0 23 1;
#X connect 27 0 56 0;
#X connect 46 0 90 0;
#X connect 47 0 91 0;
#X connect 48 0 46 0;
#X connect 49 0 47 0;
#X connect 50 0 23 0;
#X connect 51 0 52 0;
#X connect 52 0 53 0;
#X connect 53 0 50 1;
#X connect 53 0 54 1;
#X connect 54 0 23 1;
#X connect 57 0 50 0;
#X connect 58 0 54 0;
#X connect 59 0 60 0;
#X connect 60 0 61 0;
#X connect 61 0 62 1;
#X connect 61 0 63 1;
#X connect 62 0 23 0;
#X connect 63 0 23 1;
#X connect 64 0 62 0;
#X connect 65 0 63 0;
#X connect 68 0 92 0;
#X connect 69 0 70 0;
#X connect 70 0 71 0;
#X connect 71 0 77 1;
#X connect 71 0 79 1;
#X connect 72 0 68 0;
#X connect 73 0 93 0;
#X connect 74 0 75 0;
#X connect 75 0 76 0;
#X connect 76 0 80 1;
#X connect 76 0 81 1;
#X connect 77 0 23 0;
#X connect 78 0 73 0;
#X connect 79 0 23 1;
#X connect 80 0 23 0;
#X connect 81 0 23 1;
#X connect 83 0 80 0;
#X connect 84 0 81 0;
#X connect 86 0 51 0;
#X connect 86 0 85 0;
#X connect 87 0 59 0;
#X connect 88 0 69 0;
#X connect 89 0 74 0;
#X connect 90 0 86 0;
#X connect 91 0 87 0;
#X connect 92 0 88 0;
#X connect 93 0 89 0;
#X connect 95 0 77 0;
#X connect 96 0 79 0;
#X connect 97 0 22 0;
#X connect 98 0 22 0;
