#N canvas 278 92 976 559 10;
#X obj 12 10 tgl 15 0 empty empty empty 17 7 0 10 -262144 -1 -1 1 1
;
#X text 30 9 start polling;
#X obj 277 513 dac~;
#X floatatom 514 29 5 0 0 0 - L2 -, f 5;
#X floatatom 473 29 5 0 0 0 - LY -, f 5;
#X floatatom 430 29 5 0 0 0 - LX -, f 5;
#X floatatom 677 29 5 0 0 0 - R2 -, f 5;
#X floatatom 463 466 5 0 0 0 - RY -, f 5;
#X floatatom 502 466 5 0 0 0 - RX -, f 5;
#X text 512 11 L2;
#X text 471 11 LY;
#X text 430 9 LX;
#X text 674 12 R2;
#X text 461 448 RY;
#X text 502 448 RX;
#X obj 12 33 dualshock;
#X obj 12 63 remote;
#X obj 43 177 route square triangle circle;
#X msg 7 241 square bang;
#X msg 87 241 triangle bang;
#X msg 179 240 circle bang;
#X obj 22 207 moses 0.5;
#X obj 549 28 tgl 15 0 empty L1 empty 17 7 0 10 -262144 -1 -1 0 1;
#X obj 714 28 tgl 15 0 empty R1 empty 17 7 0 10 -262144 -1 -1 0 1;
#X text 544 10 L1;
#X text 710 11 R1;
#X obj 58 383 wavebank~;
#X obj 118 411 *~;
#X obj 302 324 tgl 15 0 empty cross empty 17 7 0 10 -262144 -1 -1 0
1;
#X obj 311 401 tgl 15 0 empty empty empty 17 7 0 10 -262144 -1 -1 1
1;
#X obj 332 375 loadbang;
#X obj 311 375 bng 15 250 50 0 empty empty empty 17 7 0 10 -262144
-1 -1;
#X obj 519 314 ftof~;
#X obj 504 376 +~;
#X obj 484 116 / 255;
#X obj 676 90 / 255;
#X obj 303 341 moses 0.5;
#X obj 286 401 tgl 15 0 empty empty empty 17 7 0 10 -262144 -1 -1 0
1;
#X obj 436 89 expr pow(4 \, (128 - $f1) / 128) * 440;
#X obj 393 60 expr pow(2 \, (128 - $f1) / 128) * 110;
#X obj 140 383 wavebank~;
#X obj 440 343 wavebank~;
#X obj 478 413 wavebank~;
#X obj 281 23 tgl 15 0 empty share empty 17 7 0 10 -262144 -1 -1 0
1;
#X obj 260 66 bng 15 250 50 0 empty empty empty 17 7 0 10 -262144 -1
-1;
#X obj 280 67 bng 15 250 50 0 empty empty empty 17 7 0 10 -262144 -1
-1;
#X text 241 367 AM;
#X text 395 359 FM;
#X obj 121 125 spigot;
#X obj 254 126 spigot;
#X msg 197 99 1;
#X msg 231 99 0;
#X msg 269 99 1;
#X msg 303 99 0;
#X obj 259 43 route 1 0;
#X obj 95 210 moses 0.5;
#X obj 181 210 moses 0.5;
#X obj 612 176 route square triangle circle;
#X msg 576 240 square bang;
#X msg 656 240 triangle bang;
#X msg 748 239 circle bang;
#X obj 591 206 moses 0.5;
#X obj 664 209 moses 0.5;
#X obj 750 209 moses 0.5;
#X obj 374 409 *~ 0.8;
#X obj 330 193 loadbang;
#X text 555 405 square/triangle/circle square/triangle/sine;
#X text 556 391 L1/R1 base/carrier legato;
#X text 556 376 L2/R2 base/carrier amplitudes;
#X text 556 361 LY/LX base/carrier frequencies;
#X text 554 420 share assign waveform to base \, carrier otw;
#X text 554 433 X toggle AM/FM;
#X obj 261 437 *~ 0;
#X obj 303 437 *~ 1;
#X obj 58 347 ftof~;
#X obj 139 347 ftof~;
#X obj 440 307 ftof~;
#X obj 278 479 vcf~;
#X obj 359 507 *~ 1;
#X obj 430 516 expr pow(2 \, (128 - $f1)/128);
#X text 555 447 RY/RX lowpass filter frequency/resonance;
#X obj 521 487 / 32;
#X connect 0 0 15 0;
#X connect 3 0 34 0;
#X connect 4 0 38 0;
#X connect 5 0 39 0;
#X connect 6 0 35 0;
#X connect 6 0 41 2;
#X connect 7 0 79 0;
#X connect 8 0 81 0;
#X connect 15 0 16 0;
#X connect 15 0 48 0;
#X connect 15 0 49 0;
#X connect 17 0 21 0;
#X connect 17 1 55 0;
#X connect 17 2 56 0;
#X connect 18 0 26 1;
#X connect 18 0 42 1;
#X connect 19 0 26 1;
#X connect 19 0 42 1;
#X connect 20 0 26 1;
#X connect 20 0 42 1;
#X connect 21 1 18 0;
#X connect 22 0 32 1;
#X connect 22 0 74 1;
#X connect 23 0 75 1;
#X connect 23 0 76 1;
#X connect 26 0 27 0;
#X connect 27 0 72 0;
#X connect 28 0 36 0;
#X connect 29 0 73 1;
#X connect 30 0 29 0;
#X connect 31 0 29 0;
#X connect 31 0 37 0;
#X connect 32 0 33 1;
#X connect 33 0 42 0;
#X connect 34 0 26 2;
#X connect 34 0 42 2;
#X connect 35 0 40 2;
#X connect 36 0 31 0;
#X connect 37 0 72 1;
#X connect 38 0 32 0;
#X connect 38 0 74 0;
#X connect 39 0 75 0;
#X connect 39 0 76 0;
#X connect 40 0 27 1;
#X connect 41 0 33 0;
#X connect 42 0 64 0;
#X connect 43 0 54 0;
#X connect 44 0 50 0;
#X connect 44 0 53 0;
#X connect 45 0 51 0;
#X connect 45 0 52 0;
#X connect 48 0 17 0;
#X connect 49 0 57 0;
#X connect 50 0 48 1;
#X connect 51 0 48 1;
#X connect 52 0 49 1;
#X connect 53 0 49 1;
#X connect 54 0 44 0;
#X connect 54 1 45 0;
#X connect 55 1 19 0;
#X connect 56 1 20 0;
#X connect 57 0 61 0;
#X connect 57 1 62 0;
#X connect 57 2 63 0;
#X connect 58 0 40 1;
#X connect 58 0 41 1;
#X connect 59 0 40 1;
#X connect 59 0 41 1;
#X connect 60 0 40 1;
#X connect 60 0 41 1;
#X connect 61 1 58 0;
#X connect 62 1 59 0;
#X connect 63 1 60 0;
#X connect 64 0 73 0;
#X connect 65 0 20 0;
#X connect 65 0 60 0;
#X connect 65 0 52 0;
#X connect 72 0 77 0;
#X connect 73 0 77 0;
#X connect 74 0 26 0;
#X connect 74 0 78 0;
#X connect 75 0 40 0;
#X connect 76 0 41 0;
#X connect 77 1 2 0;
#X connect 77 1 2 1;
#X connect 78 0 77 1;
#X connect 79 0 78 1;
#X connect 81 0 77 2;
