#N canvas 562 282 837 514 10;
#X obj 12 10 tgl 15 0 empty empty empty 17 7 0 10 -262144 -1 -1 1 1
;
#X text 30 9 start polling;
#X obj 136 390 dac~;
#X floatatom 100 188 5 0 0 0 - L2 -, f 5;
#X floatatom 59 188 5 0 0 0 - LY -, f 5;
#X floatatom 16 188 5 0 0 0 - LX -, f 5;
#X floatatom 263 188 5 0 0 0 - R2 -, f 5;
#X floatatom 225 188 5 0 0 0 - RY -, f 5;
#X floatatom 187 189 5 0 0 0 - RX -, f 5;
#X obj 139 362 +~;
#X text 98 170 L2;
#X text 57 170 LY;
#X text 16 168 LX;
#X text 260 171 R2;
#X text 223 170 RY;
#X text 187 171 RX;
#X obj 12 33 dualshock;
#X obj 12 63 remote;
#X obj 70 63 route square triangle circle;
#X msg 69 121 square bang;
#X msg 149 121 triangle bang;
#X msg 259 120 circle bang;
#X obj 69 99 moses 0.5;
#X obj 149 98 moses 0.5;
#X obj 259 98 moses 0.5;
#X obj 92 296 voice~;
#X obj 176 295 voice~;
#X obj 135 187 tgl 15 0 empty L1 empty 17 7 0 10 -262144 -1 -1 0 1
;
#X obj 300 187 tgl 15 0 empty R1 empty 17 7 0 10 -262144 -1 -1 0 1
;
#X text 130 169 L1;
#X text 296 170 R1;
#X connect 0 0 16 0;
#X connect 3 0 25 1;
#X connect 4 0 25 0;
#X connect 5 0 25 2;
#X connect 6 0 26 1;
#X connect 7 0 26 0;
#X connect 8 0 26 2;
#X connect 9 0 2 0;
#X connect 9 0 2 1;
#X connect 16 0 17 0;
#X connect 16 0 18 0;
#X connect 18 0 22 0;
#X connect 18 1 23 0;
#X connect 18 2 24 0;
#X connect 19 0 25 3;
#X connect 19 0 26 3;
#X connect 20 0 25 3;
#X connect 20 0 26 3;
#X connect 21 0 25 3;
#X connect 21 0 26 3;
#X connect 22 1 19 0;
#X connect 23 1 20 0;
#X connect 24 1 21 0;
#X connect 25 0 9 0;
#X connect 26 0 9 1;
#X connect 27 0 25 4;
#X connect 28 0 26 4;
