#N canvas 592 162 361 490 10;
#X obj 126 87 bng 15 250 50 0 empty empty empty 17 7 0 10 -262144 -1
-1;
#X msg 69 88 ls;
#X msg 144 87 read;
#X obj 146 154 dualshock;
#X msg 204 88 start;
#X msg 250 88 stop;
#X obj 210 297 tgl 15 0 empty triangle empty 17 7 0 10 -262144 -1 -1
0 1;
#X obj 193 315 tgl 15 0 empty square empty 17 7 0 10 -262144 -1 -1
0 1;
#X obj 211 332 tgl 15 0 empty cross empty 17 7 0 10 -262144 -1 -1 0
1;
#X obj 228 314 tgl 15 0 empty circle empty 17 7 0 10 -262144 -1 -1
0 1;
#X obj 182 286 tgl 15 0 empty options empty 17 7 0 10 -262144 -1 -1
0 1;
#X obj 147 286 tgl 15 0 empty share empty 17 7 0 10 -262144 -1 -1 0
1;
#X obj 231 261 tgl 15 0 empty R1 empty 17 7 0 10 -262144 -1 -1 0 1
;
#X obj 100 260 tgl 15 0 empty L1 empty 17 7 0 10 -262144 -1 -1 0 1
;
#X floatatom 93 237 5 0 0 0 - L2 -, f 5;
#X floatatom 223 238 5 0 0 0 - R2 -, f 5;
#X floatatom 201 363 5 0 0 0 - RX -, f 5;
#X floatatom 114 361 5 0 0 0 - LX -, f 5;
#X obj 121 397 tgl 15 0 empty L3 empty 17 7 0 10 -262144 -1 -1 0 1
;
#X obj 210 398 tgl 15 0 empty R3 empty 17 7 0 10 -262144 -1 -1 0 1
;
#X obj 165 361 tgl 15 0 empty PS empty 17 7 0 10 -262144 -1 -1 0 1
;
#X obj 165 286 tgl 15 0 empty touchpad empty 17 7 0 10 -262144 -1 -1
0 1;
#X floatatom 115 378 5 0 0 0 - LY -, f 5;
#X floatatom 201 380 5 0 0 0 - RY -, f 5;
#X obj 146 180 remote;
#X obj 210 297 tgl 15 0 empty triangle empty 17 7 0 10 -262144 -1 -1
0 1;
#X obj 193 315 tgl 15 0 empty square empty 17 7 0 10 -262144 -1 -1
0 1;
#X obj 211 332 tgl 15 0 empty cross empty 17 7 0 10 -262144 -1 -1 0
1;
#X obj 228 314 tgl 15 0 empty circle empty 17 7 0 10 -262144 -1 -1
0 1;
#X obj 122 298 tgl 15 0 empty DN empty 17 7 0 10 -262144 -1 -1 0 1
;
#X obj 105 316 tgl 15 0 empty DW empty 17 7 0 10 -262144 -1 -1 0 1
;
#X obj 123 333 tgl 15 0 empty DS empty 17 7 0 10 -262144 -1 -1 0 1
;
#X obj 140 315 tgl 15 0 empty DE empty 17 7 0 10 -262144 -1 -1 0 1
;
#X text 204 67 start/stop polling;
#X obj 250 111 tgl 15 0 empty empty empty 17 7 0 10 -262144 -1 -1 0
1;
#X text 108 45 read buffers once;
#X text 36 67 list devices;
#X floatatom 139 241 5 0 0 0 - touchpad1x -, f 5;
#X floatatom 139 259 5 0 0 0 - touchpad1y -, f 5;
#X floatatom 177 241 5 0 0 0 - touchpad2x -, f 5;
#X floatatom 177 259 5 0 0 0 - touchpad2y -, f 5;
#X obj 197 180 print;
#X connect 0 0 3 0;
#X connect 1 0 3 0;
#X connect 2 0 3 0;
#X connect 3 0 24 0;
#X connect 3 0 41 0;
#X connect 4 0 3 0;
#X connect 5 0 3 0;
#X connect 34 0 3 0;
