#N canvas 219 148 837 514 10;
#X obj 12 34 dualshock;
#X obj 12 60 remote;
#X obj 12 10 tgl 15 0 empty empty empty 17 7 0 10 -262144 -1 -1 1 1
;
#X text 30 9 start polling;
#X obj 51 132 noise~;
#X obj 371 463 dac~;
#X obj 84 157 *~;
#X floatatom 100 110 5 0 0 0 - L2 -, f 5;
#X obj 100 131 / 255;
#X obj 59 365 bp~ 440 10;
#X floatatom 142 111 5 0 0 0 - LY -, f 5;
#X floatatom 184 151 5 0 0 0 - - -, f 5;
#X obj 142 131 expr pow(4 \, (128 - $f1) / 128) * 440;
#X obj 133 241 delwrite~ buff1 1000;
#X floatatom 134 262 5 0 0 0 - LX -, f 5;
#X obj 134 297 sig~;
#X obj 134 320 vd~ buff1;
#X obj 59 339 +~;
#X obj 134 278 expr ($f1 / 128) / $f2 * 1000;
#X obj 350 408 /~ 2;
#X obj 392 130 noise~;
#X obj 425 155 *~;
#X floatatom 441 108 5 0 0 0 - R2 -, f 5;
#X obj 441 129 / 255;
#X obj 400 364 bp~ 440 10;
#X floatatom 483 109 5 0 0 0 - RY -, f 5;
#X floatatom 525 149 5 0 0 0 - - -, f 5;
#X obj 483 129 expr pow(4 \, (128 - $f1) / 128) * 440;
#X floatatom 475 260 5 0 0 0 - RX -, f 5;
#X obj 475 295 sig~;
#X obj 400 337 +~;
#X obj 475 276 expr ($f1 / 128) / $f2 * 1000;
#X obj 384 407 /~ 2;
#X obj 475 239 delwrite~ buff2 1000;
#X obj 475 318 vd~ buff2;
#X obj 374 435 +~;
#X text 98 92 L2;
#X text 140 93 LY;
#X text 169 262 LX;
#X text 438 91 R2;
#X text 481 91 RY;
#X text 511 259 RX;
#X floatatom 168 299 5 0 0 0 - - -, f 5;
#X floatatom 507 297 5 0 0 0 - - -, f 5;
#X connect 0 0 1 0;
#X connect 2 0 0 0;
#X connect 4 0 6 0;
#X connect 6 0 13 0;
#X connect 6 0 17 0;
#X connect 7 0 8 0;
#X connect 8 0 6 1;
#X connect 9 0 19 0;
#X connect 10 0 12 0;
#X connect 12 0 11 0;
#X connect 12 0 9 1;
#X connect 12 0 18 1;
#X connect 14 0 18 0;
#X connect 15 0 16 0;
#X connect 16 0 17 1;
#X connect 17 0 9 0;
#X connect 18 0 15 0;
#X connect 18 0 42 0;
#X connect 19 0 35 0;
#X connect 20 0 21 0;
#X connect 21 0 30 0;
#X connect 21 0 33 0;
#X connect 22 0 23 0;
#X connect 23 0 21 1;
#X connect 24 0 32 0;
#X connect 25 0 27 0;
#X connect 27 0 26 0;
#X connect 27 0 24 1;
#X connect 27 0 31 1;
#X connect 28 0 31 0;
#X connect 29 0 34 0;
#X connect 30 0 24 0;
#X connect 31 0 29 0;
#X connect 31 0 43 0;
#X connect 32 0 35 1;
#X connect 34 0 30 1;
#X connect 35 0 5 0;
#X connect 35 0 5 1;
