#N canvas 14 253 481 432 10;
#X obj 28 37 inlet;
#X text 24 16 frequency;
#X msg 26 239 \$1 1;
#X obj 26 260 line~;
#X obj 80 91 ftom;
#X obj 80 113 expr floor($f1 + 0.49);
#X obj 80 135 mtof;
#X obj 28 204 spigot;
#X obj 150 204 spigot;
#X msg 157 174 1;
#X msg 187 174 0;
#X msg 51 178 1;
#X msg 80 178 0;
#X obj 26 288 outlet~;
#X obj 298 40 inlet;
#X text 296 18 legato;
#X obj 219 137 select 1;
#X obj 294 97 loadbang;
#X connect 0 0 4 0;
#X connect 0 0 7 0;
#X connect 2 0 3 0;
#X connect 3 0 13 0;
#X connect 4 0 5 0;
#X connect 5 0 6 0;
#X connect 6 0 8 0;
#X connect 7 0 2 0;
#X connect 8 0 2 0;
#X connect 9 0 8 1;
#X connect 10 0 7 1;
#X connect 11 0 7 1;
#X connect 12 0 8 1;
#X connect 14 0 16 0;
#X connect 16 0 12 0;
#X connect 16 0 11 0;
#X connect 16 1 9 0;
#X connect 16 1 10 0;
#X connect 17 0 9 0;
#X connect 17 0 10 0;
