#N canvas 634 309 450 300 10;
#X msg 107 55 0 1;
#X obj 67 103 line~;
#X msg 65 54 1 1;
#X obj 17 26 inlet~;
#X obj 65 26 inlet;
#X obj 107 27 inlet;
#X text 15 7 audio;
#X text 63 6 on;
#X text 108 7 off;
#X obj 32 171 outlet~;
#X obj 32 137 *~;
#X connect 0 0 1 0;
#X connect 1 0 10 1;
#X connect 2 0 1 0;
#X connect 3 0 10 0;
#X connect 4 0 2 0;
#X connect 5 0 0 0;
#X connect 10 0 9 0;
