#N canvas 94 487 450 300 10;
#X obj 24 120 expr~ $v1 > $v2;
#X obj 111 19 inlet;
#X obj 111 44 moses 127;
#X obj 24 186 outlet~;
#X obj 53 156 lop~ 4000;
#X obj 133 124 expr (($f1 / 127) + 1) * 3000;
#X obj 24 82 phasor~;
#X obj 162 77 expr ($f1 - 127) / 257 + 0.5;
#X obj 24 15 inlet~;
#X connect 0 0 4 0;
#X connect 1 0 2 0;
#X connect 2 0 5 0;
#X connect 2 1 7 0;
#X connect 4 0 3 0;
#X connect 5 0 4 1;
#X connect 6 0 0 0;
#X connect 7 0 0 1;
#X connect 8 0 6 0;
