#N canvas 511 170 761 468 10;
#X obj 36 12 inlet;
#X obj 176 11 loadbang;
#X obj 37 381 outlet~;
#X obj 245 353 outlet~;
#X obj 36 278 line~;
#X msg 36 258 \$1 1;
#X obj 62 342 *~;
#X obj 275 273 line~;
#X msg 275 253 \$1 1;
#X obj 256 308 *~;
#X obj 79 67 change 0;
#X obj 78 96 moses 0.5;
#X obj 79 38 expr $f1 > 0;
#X obj 213 65 symbol \$1;
#N canvas 0 22 450 278 (subpatch) 0;
#X array \$0-buff1 32267 float 2;
#X coords 0 1 32267 -1 200 140 1 0 0;
#X restore 464 29 graph;
#X obj 213 140 soundfiler;
#X obj 176 34 t b b;
#N canvas 0 22 450 278 (subpatch) 0;
#X array \$0-buff2 32267 float 2;
#X coords 0 1 32267 -1 200 140 1 0 0;
#X restore 463 189 graph;
#X msg 213 118 read -resize \$1 \$2-buff1 \$2-buff2;
#X obj 64 209 tabplay~ \$0-buff1;
#X obj 176 209 tabplay~ \$0-buff2;
#X obj 294 19 bng 15 250 50 0 empty empty empty 17 7 0 10 -262144 -1
-1;
#X obj 290 63 int \$0;
#X obj 213 92 pack s f;
#X connect 0 0 5 0;
#X connect 0 0 8 0;
#X connect 0 0 12 0;
#X connect 1 0 16 0;
#X connect 4 0 6 1;
#X connect 5 0 4 0;
#X connect 6 0 2 0;
#X connect 7 0 9 1;
#X connect 8 0 7 0;
#X connect 9 0 3 0;
#X connect 10 0 11 0;
#X connect 11 1 20 0;
#X connect 11 1 19 0;
#X connect 12 0 10 0;
#X connect 13 0 23 0;
#X connect 16 0 13 0;
#X connect 16 1 22 0;
#X connect 18 0 15 0;
#X connect 19 0 6 0;
#X connect 20 0 9 0;
#X connect 21 0 16 0;
#X connect 22 0 23 1;
#X connect 23 0 18 0;
