#N canvas 821 99 536 493 10;
#X obj 185 401 *~;
#X obj 26 63 expr pow(4 \, (128 - $f1) / 128) * 440;
#X obj 26 37 inlet;
#X obj 84 302 triangle~;
#X obj 258 41 inlet;
#X obj 258 69 / 255;
#X obj 185 464 outlet~;
#X obj 185 430 /~ 2;
#X obj 258 113 line~;
#X msg 258 91 \$1 1;
#X text 24 16 frequency;
#X text 256 18 volume;
#X obj 323 40 inlet;
#X text 322 18 mod;
#X obj 401 41 inlet;
#X text 399 18 waveform;
#X obj 250 303 pwm~;
#X obj 321 303 osc~;
#X obj 136 342 mixer~;
#X obj 245 331 mixer~;
#X obj 316 330 mixer~;
#X obj 223 367 +~;
#X obj 312 106 t b b;
#X obj 384 107 t b b;
#X obj 456 107 t b b;
#X obj 350 76 route triangle square circle;
#X msg 26 239 \$1 1;
#X obj 26 260 line~;
#X obj 467 41 inlet;
#X obj 80 91 ftom;
#X obj 80 113 expr floor($f1 + 0.49);
#X obj 80 135 mtof;
#X obj 28 204 spigot;
#X obj 150 204 spigot;
#X msg 157 174 1;
#X msg 187 174 0;
#X msg 51 178 1;
#X msg 80 178 0;
#X text 465 19 legato;
#X obj 135 138 select 0;
#X connect 0 0 7 0;
#X connect 1 0 29 0;
#X connect 1 0 32 0;
#X connect 2 0 1 0;
#X connect 3 0 18 0;
#X connect 4 0 5 0;
#X connect 5 0 9 0;
#X connect 7 0 6 0;
#X connect 8 0 0 1;
#X connect 9 0 8 0;
#X connect 12 0 16 1;
#X connect 14 0 25 0;
#X connect 16 0 19 0;
#X connect 17 0 20 0;
#X connect 18 0 21 0;
#X connect 19 0 21 0;
#X connect 20 0 21 1;
#X connect 21 0 0 0;
#X connect 22 0 18 1;
#X connect 22 1 20 2;
#X connect 22 1 19 2;
#X connect 23 0 19 1;
#X connect 23 1 20 2;
#X connect 23 1 18 2;
#X connect 24 0 20 1;
#X connect 24 1 19 2;
#X connect 24 1 18 2;
#X connect 25 0 22 0;
#X connect 25 1 23 0;
#X connect 25 2 24 0;
#X connect 26 0 27 0;
#X connect 27 0 3 0;
#X connect 27 0 16 0;
#X connect 27 0 17 0;
#X connect 28 0 39 0;
#X connect 29 0 30 0;
#X connect 30 0 31 0;
#X connect 31 0 33 0;
#X connect 32 0 26 0;
#X connect 33 0 26 0;
#X connect 34 0 33 1;
#X connect 35 0 32 1;
#X connect 36 0 32 1;
#X connect 37 0 33 1;
#X connect 39 0 34 0;
#X connect 39 0 35 0;
#X connect 39 1 37 0;
#X connect 39 1 36 0;
