#N canvas 47 270 667 535 10;
#X obj 26 152 triangle~;
#X obj 295 448 outlet~;
#X text 24 16 frequency;
#X obj 401 41 inlet;
#X text 399 18 waveform;
#X obj 96 151 pwm~;
#X obj 137 151 osc~;
#X obj 115 333 mixer~;
#X obj 245 331 mixer~;
#X obj 316 330 mixer~;
#X obj 131 271 t b b;
#X obj 261 223 t b b;
#X obj 332 258 t b b;
#X obj 350 76 route triangle square circle;
#X obj 542 37 inlet;
#X text 542 15 volume;
#X obj 295 411 *~;
#X msg 542 117 \$1 1;
#X obj 542 138 line~;
#X obj 26 37 inlet~;
#X obj 96 193 *~ 0.5;
#X obj 149 192 *~ 0.6;
#X connect 0 0 7 0;
#X connect 3 0 13 0;
#X connect 5 0 20 0;
#X connect 6 0 21 0;
#X connect 7 0 16 0;
#X connect 8 0 16 0;
#X connect 9 0 16 0;
#X connect 10 0 7 1;
#X connect 10 1 9 2;
#X connect 10 1 8 2;
#X connect 11 0 8 1;
#X connect 11 1 9 2;
#X connect 11 1 7 2;
#X connect 12 0 9 1;
#X connect 12 1 8 2;
#X connect 12 1 7 2;
#X connect 13 0 10 0;
#X connect 13 1 11 0;
#X connect 13 2 12 0;
#X connect 14 0 17 0;
#X connect 16 0 1 0;
#X connect 17 0 18 0;
#X connect 18 0 16 1;
#X connect 19 0 0 0;
#X connect 19 0 5 0;
#X connect 19 0 6 0;
#X connect 20 0 8 0;
#X connect 21 0 9 0;
